<mxfile host="Electron" modified="2024-10-17T16:35:06.891Z" agent="Mozilla/5.0 (Windows NT 10.0; Win64; x64) AppleWebKit/537.36 (KHTML, like Gecko) draw.io/21.6.8 Chrome/114.0.5735.289 Electron/25.5.0 Safari/537.36" etag="EXYQHSL0hjxXwOb70Z-y" version="21.6.8" type="device">
  <diagram name="Página-1" id="nKaO7tWLdfTiDb_K3E_j">
    <mxGraphModel dx="1195" dy="697" grid="1" gridSize="10" guides="1" tooltips="1" connect="1" arrows="1" fold="1" page="1" pageScale="1" pageWidth="827" pageHeight="1169" math="0" shadow="0">
      <root>
        <mxCell id="0" />
        <mxCell id="1" parent="0" />
        <mxCell id="uW0wg6DJ7d496fE0gTcl-1" value="&lt;font style=&quot;font-size: 12px;&quot;&gt;Persona a Monitorear&lt;/font&gt;" style="shape=umlActor;verticalLabelPosition=bottom;verticalAlign=top;html=1;outlineConnect=0;fontFamily=Times New Roman;fontSize=14;" vertex="1" parent="1">
          <mxGeometry x="620" y="300" width="30" height="60" as="geometry" />
        </mxCell>
        <mxCell id="uW0wg6DJ7d496fE0gTcl-2" value="&lt;font style=&quot;font-size: 12px;&quot;&gt;Administrador&lt;/font&gt;" style="shape=umlActor;verticalLabelPosition=bottom;verticalAlign=top;html=1;outlineConnect=0;fontFamily=Times New Roman;fontSize=14;" vertex="1" parent="1">
          <mxGeometry x="160" y="160" width="30" height="60" as="geometry" />
        </mxCell>
        <mxCell id="uW0wg6DJ7d496fE0gTcl-5" value="" style="group" vertex="1" connectable="0" parent="1">
          <mxGeometry x="230" y="40" width="330" height="430" as="geometry" />
        </mxCell>
        <mxCell id="uW0wg6DJ7d496fE0gTcl-3" value="" style="rounded=0;whiteSpace=wrap;html=1;" vertex="1" parent="uW0wg6DJ7d496fE0gTcl-5">
          <mxGeometry width="330" height="400" as="geometry" />
        </mxCell>
        <mxCell id="uW0wg6DJ7d496fE0gTcl-4" value="&lt;b&gt;Sistema para la Recolección, Procesamiento y Clasificación a partir de Wi-Fi CSI&lt;/b&gt;" style="text;html=1;strokeColor=none;fillColor=none;align=left;verticalAlign=middle;whiteSpace=wrap;rounded=0;fontFamily=Times New Roman;fontSize=14;" vertex="1" parent="uW0wg6DJ7d496fE0gTcl-5">
          <mxGeometry width="330" height="30" as="geometry" />
        </mxCell>
        <mxCell id="uW0wg6DJ7d496fE0gTcl-6" value="Configurar parámetros de recolección" style="ellipse;whiteSpace=wrap;html=1;fontFamily=Times New Roman;" vertex="1" parent="uW0wg6DJ7d496fE0gTcl-5">
          <mxGeometry x="10" y="140" width="140" height="70" as="geometry" />
        </mxCell>
        <mxCell id="uW0wg6DJ7d496fE0gTcl-7" value="Habilitar procesamiento de la información recolectada" style="ellipse;whiteSpace=wrap;html=1;fontFamily=Times New Roman;" vertex="1" parent="uW0wg6DJ7d496fE0gTcl-5">
          <mxGeometry x="180" y="140" width="140" height="70" as="geometry" />
        </mxCell>
        <mxCell id="uW0wg6DJ7d496fE0gTcl-8" value="Habilitar clasificación a partir de información procesada" style="ellipse;whiteSpace=wrap;html=1;fontFamily=Times New Roman;" vertex="1" parent="uW0wg6DJ7d496fE0gTcl-5">
          <mxGeometry x="95" y="230" width="140" height="70" as="geometry" />
        </mxCell>
        <mxCell id="uW0wg6DJ7d496fE0gTcl-9" value="Perturbar el enlace de comunicación" style="ellipse;whiteSpace=wrap;html=1;fontFamily=Times New Roman;" vertex="1" parent="uW0wg6DJ7d496fE0gTcl-5">
          <mxGeometry x="95" y="310" width="140" height="70" as="geometry" />
        </mxCell>
        <mxCell id="uW0wg6DJ7d496fE0gTcl-15" value="Configurar funcionalidades del sistema" style="ellipse;whiteSpace=wrap;html=1;fontFamily=Times New Roman;" vertex="1" parent="uW0wg6DJ7d496fE0gTcl-5">
          <mxGeometry x="95" y="60" width="140" height="70" as="geometry" />
        </mxCell>
        <mxCell id="uW0wg6DJ7d496fE0gTcl-16" value="&amp;lt;&amp;lt;extend&amp;gt;&amp;gt;" style="html=1;verticalAlign=bottom;labelBackgroundColor=none;endArrow=open;endFill=0;dashed=1;rounded=0;entryX=0.5;entryY=1;entryDx=0;entryDy=0;exitX=0.5;exitY=0;exitDx=0;exitDy=0;fontFamily=Times New Roman;fontSize=10;" edge="1" parent="uW0wg6DJ7d496fE0gTcl-5" source="uW0wg6DJ7d496fE0gTcl-8" target="uW0wg6DJ7d496fE0gTcl-15">
          <mxGeometry x="-0.8" y="-25" width="160" relative="1" as="geometry">
            <mxPoint x="-160" y="290" as="sourcePoint" />
            <mxPoint y="290" as="targetPoint" />
            <mxPoint as="offset" />
          </mxGeometry>
        </mxCell>
        <mxCell id="uW0wg6DJ7d496fE0gTcl-20" value="&amp;lt;&amp;lt;extend&amp;gt;&amp;gt;" style="html=1;verticalAlign=bottom;labelBackgroundColor=none;endArrow=open;endFill=0;dashed=1;rounded=0;entryX=1;entryY=0.5;entryDx=0;entryDy=0;exitX=0.5;exitY=0;exitDx=0;exitDy=0;fontFamily=Times New Roman;fontSize=10;" edge="1" parent="uW0wg6DJ7d496fE0gTcl-5" source="uW0wg6DJ7d496fE0gTcl-7" target="uW0wg6DJ7d496fE0gTcl-15">
          <mxGeometry x="-0.3333" y="-20" width="160" relative="1" as="geometry">
            <mxPoint x="179.67000000000002" y="250" as="sourcePoint" />
            <mxPoint x="179.67000000000002" y="150" as="targetPoint" />
            <mxPoint as="offset" />
            <Array as="points">
              <mxPoint x="250" y="95" />
            </Array>
          </mxGeometry>
        </mxCell>
        <mxCell id="uW0wg6DJ7d496fE0gTcl-21" value="&amp;lt;&amp;lt;extend&amp;gt;&amp;gt;" style="html=1;verticalAlign=bottom;labelBackgroundColor=none;endArrow=open;endFill=0;dashed=1;rounded=0;entryX=0.038;entryY=0.71;entryDx=0;entryDy=0;exitX=0.5;exitY=0;exitDx=0;exitDy=0;fontFamily=Times New Roman;fontSize=10;entryPerimeter=0;" edge="1" parent="uW0wg6DJ7d496fE0gTcl-5" source="uW0wg6DJ7d496fE0gTcl-6" target="uW0wg6DJ7d496fE0gTcl-15">
          <mxGeometry x="-0.3333" y="20" width="160" relative="1" as="geometry">
            <mxPoint x="65" y="130" as="sourcePoint" />
            <mxPoint x="50" y="85" as="targetPoint" />
            <mxPoint as="offset" />
            <Array as="points">
              <mxPoint x="80" y="110" />
            </Array>
          </mxGeometry>
        </mxCell>
        <mxCell id="uW0wg6DJ7d496fE0gTcl-22" value="" style="endArrow=open;startArrow=none;endFill=0;startFill=0;endSize=8;html=1;verticalAlign=bottom;labelBackgroundColor=none;strokeWidth=1;rounded=0;exitX=0.5;exitY=0.5;exitDx=0;exitDy=0;exitPerimeter=0;entryX=0;entryY=0.5;entryDx=0;entryDy=0;" edge="1" parent="1" source="uW0wg6DJ7d496fE0gTcl-2" target="uW0wg6DJ7d496fE0gTcl-15">
          <mxGeometry width="160" relative="1" as="geometry">
            <mxPoint x="20" y="320" as="sourcePoint" />
            <mxPoint x="180" y="320" as="targetPoint" />
            <Array as="points">
              <mxPoint x="220" y="190" />
              <mxPoint x="220" y="170" />
              <mxPoint x="220" y="135" />
            </Array>
          </mxGeometry>
        </mxCell>
        <mxCell id="uW0wg6DJ7d496fE0gTcl-23" value="" style="endArrow=none;startArrow=open;endFill=0;startFill=0;endSize=8;html=1;verticalAlign=bottom;labelBackgroundColor=none;strokeWidth=1;rounded=0;exitX=1;exitY=0.5;exitDx=0;exitDy=0;entryX=0.5;entryY=0.5;entryDx=0;entryDy=0;entryPerimeter=0;" edge="1" parent="1" source="uW0wg6DJ7d496fE0gTcl-9" target="uW0wg6DJ7d496fE0gTcl-1">
          <mxGeometry width="160" relative="1" as="geometry">
            <mxPoint x="470" y="385" as="sourcePoint" />
            <mxPoint x="620" y="330" as="targetPoint" />
            <Array as="points">
              <mxPoint x="515" y="385" />
              <mxPoint x="515" y="365" />
              <mxPoint x="515" y="330" />
            </Array>
          </mxGeometry>
        </mxCell>
      </root>
    </mxGraphModel>
  </diagram>
</mxfile>
